<?xml version="1.0" encoding="UTF-8"?>
<svg xmlns="http://www.w3.org/2000/svg" viewBox="0 0 160.36 32.84">
  <g id="uuid-592ddab6-9997-45a7-9f72-0fa42769a826" data-name="Layer 4">
    <g id="uuid-664fea5b-4ad9-4d8e-8f4f-a25270c54b92" data-name="Layer 10">
      <path d="M89.76,16.32c-1.11-.41-1.94-.99-2.47-1.74s-.8-1.66-.8-2.71c0-1.59.57-2.93,1.71-4.01,1.14-1.08,2.66-1.62,4.56-1.62s3.45.55,4.61,1.66c1.16,1.11,1.75,2.46,1.75,4.05,0,1.01-.27,1.9-.8,2.65-.53.75-1.34,1.33-2.42,1.74,1.34.44,2.36,1.14,3.06,2.12.7.97,1.05,2.14,1.05,3.49,0,1.87-.66,3.44-1.98,4.71s-3.06,1.91-5.22,1.91-3.9-.64-5.22-1.92c-1.32-1.28-1.98-2.87-1.98-4.78,0-1.42.36-2.61,1.08-3.57.72-.96,1.75-1.61,3.08-1.96ZM88.35,21.87c0,.77.18,1.51.54,2.22.36.72.9,1.27,1.62,1.66.71.39,1.49.59,2.31.59,1.28,0,2.34-.41,3.18-1.24.83-.82,1.25-1.87,1.25-3.15s-.43-2.36-1.29-3.21c-.86-.84-1.94-1.27-3.23-1.27s-2.31.42-3.14,1.25-1.24,1.88-1.24,3.13ZM89.22,11.78c0,1.03.33,1.88,1,2.54s1.53.98,2.59.98,1.88-.33,2.54-.98c.66-.65.99-1.45.99-2.39s-.34-1.81-1.02-2.48-1.53-1.01-2.54-1.01-1.87.33-2.55.98c-.68.66-1.01,1.44-1.01,2.36Z" fill="#363636" stroke-width="0"/>
    </g>
  </g>
  <g id="uuid-e1919449-d0b8-4018-a54d-5d93bad026a9" data-name="Layer 5">
    <path d="M68.64,22.45l2.82-.24c.21,1.37.69,2.4,1.45,3.09.76.69,1.68,1.04,2.75,1.04,1.29,0,2.39-.49,3.28-1.46.89-.97,1.34-2.27,1.34-3.88s-.43-2.74-1.29-3.62-1.99-1.33-3.38-1.33c-.87,0-1.65.2-2.34.59-.7.39-1.24.9-1.64,1.53l-2.52-.33,2.12-11.23h10.87v2.56h-8.72l-1.18,5.88c1.31-.91,2.69-1.37,4.13-1.37,1.91,0,3.52.66,4.83,1.98,1.31,1.32,1.97,3.02,1.97,5.1s-.58,3.69-1.73,5.13c-1.4,1.77-3.32,2.65-5.74,2.65-1.99,0-3.61-.56-4.87-1.67-1.26-1.11-1.98-2.59-2.15-4.43Z" fill="#363636" stroke-width="0"/>
  </g>
  <g id="uuid-a0430573-41fe-42d0-b07f-fbe5cc79ab93" data-name="Layer 6">
    <path d="M63.24,23.08l2.77.34c-.44,1.62-1.25,2.88-2.43,3.77s-2.69,1.34-4.53,1.34c-2.32,0-4.15-.71-5.51-2.14-1.36-1.43-2.04-3.43-2.04-6s.69-4.73,2.06-6.2c1.37-1.47,3.15-2.21,5.34-2.21s3.85.72,5.19,2.16c1.34,1.44,2.01,3.47,2.01,6.08,0,.16,0,.4-.01.72h-11.81c.1,1.74.59,3.07,1.48,4,.88.92,1.99,1.39,3.31,1.39.98,0,1.82-.26,2.52-.78.7-.52,1.25-1.34,1.65-2.47ZM54.43,18.74h8.84c-.12-1.33-.46-2.33-1.01-3-.85-1.03-1.96-1.55-3.33-1.55-1.23,0-2.27.41-3.11,1.24-.84.83-1.3,1.93-1.39,3.31Z" fill="#363636" stroke-width="0"/>
  </g>
  <g id="uuid-dfe72eb0-ce1b-43fd-b45d-fc7943e7dd6b" data-name="Layer 7">
    <path d="M36.06,23.45l2.65-.42c.15,1.06.56,1.88,1.25,2.45s1.63.85,2.86.85,2.15-.25,2.74-.75c.6-.5.89-1.09.89-1.77,0-.61-.26-1.08-.79-1.43-.37-.24-1.28-.54-2.74-.91-1.97-.5-3.33-.93-4.09-1.29-.76-.36-1.34-.87-1.73-1.51-.39-.64-.59-1.35-.59-2.12,0-.71.16-1.36.48-1.96.32-.6.76-1.1,1.32-1.5.42-.31.99-.57,1.71-.78s1.49-.32,2.32-.32c1.24,0,2.33.18,3.27.54.94.36,1.63.84,2.08,1.45s.76,1.43.92,2.45l-2.62.36c-.12-.82-.46-1.45-1.04-1.91-.57-.46-1.38-.69-2.42-.69-1.23,0-2.11.2-2.64.61-.53.41-.79.88-.79,1.43,0,.35.11.66.33.94.22.29.56.53,1.03.72.27.1,1.06.33,2.37.69,1.9.51,3.22.92,3.97,1.25s1.34.79,1.77,1.41c.43.62.64,1.38.64,2.3s-.26,1.74-.78,2.53-1.27,1.4-2.26,1.83-2.1.65-3.34.65c-2.06,0-3.63-.43-4.7-1.28-1.08-.85-1.77-2.12-2.07-3.8Z" fill="#363636" stroke-width="0"/>
  </g>
  <g id="uuid-1dcaa76d-e8bd-4993-b5e0-ca7302c44bcb" data-name="Layer 8">
    <path d="M30.48,26.23c-.99.84-1.95,1.44-2.87,1.79s-1.91.52-2.96.52c-1.74,0-3.08-.42-4.01-1.27-.93-.85-1.4-1.94-1.4-3.26,0-.78.18-1.48.53-2.12.35-.64.81-1.16,1.39-1.54s1.22-.68,1.93-.88c.53-.14,1.32-.27,2.39-.4,2.17-.26,3.76-.57,4.79-.92,0-.37.02-.6.02-.7,0-1.09-.25-1.86-.76-2.31-.69-.61-1.71-.91-3.06-.91-1.26,0-2.19.22-2.8.66s-1.05,1.22-1.33,2.35l-2.62-.36c.24-1.12.63-2.03,1.18-2.72.55-.69,1.34-1.22,2.37-1.6,1.03-.37,2.23-.56,3.59-.56s2.45.16,3.3.48c.84.32,1.47.72,1.86,1.2s.68,1.09.83,1.83c.09.46.13,1.28.13,2.48v3.58c0,2.5.06,4.07.17,4.73.11.66.34,1.29.68,1.9h-2.8c-.28-.56-.46-1.21-.54-1.95ZM30.26,20.23c-.97.4-2.44.74-4.38,1.01-1.1.16-1.88.34-2.34.54-.46.2-.81.49-1.06.87-.25.38-.37.81-.37,1.28,0,.72.27,1.31.81,1.79.54.48,1.33.72,2.38.72s1.95-.23,2.76-.68,1.4-1.07,1.77-1.86c.29-.61.43-1.5.43-2.68v-.98Z" fill="#363636" stroke-width="0"/>
  </g>
  <g id="uuid-e437d801-7d33-4d21-b06d-b2d22479d363" data-name="Layer 9">
    <path d="M0,28.18V6.32h8.2c1.67,0,3.01.22,4.02.66,1.01.44,1.8,1.12,2.37,2.04.57.92.86,1.88.86,2.88,0,.93-.25,1.81-.76,2.64s-1.27,1.49-2.3,2c1.32.39,2.34,1.05,3.05,1.98.71.93,1.07,2.04,1.07,3.31,0,1.02-.22,1.98-.65,2.86-.43.88-.97,1.56-1.6,2.04-.64.48-1.43.84-2.39,1.08-.96.24-2.14.37-3.53.37H0ZM2.89,15.5h4.73c1.28,0,2.2-.08,2.76-.25.74-.22,1.29-.58,1.66-1.09.37-.51.56-1.14.56-1.91,0-.73-.17-1.37-.52-1.92s-.84-.93-1.49-1.13c-.65-.2-1.75-.31-3.33-.31H2.89v6.61ZM2.89,25.6h5.44c.93,0,1.59-.03,1.97-.1.67-.12,1.22-.32,1.67-.6.45-.28.81-.68,1.1-1.22.29-.53.43-1.15.43-1.84,0-.81-.21-1.52-.63-2.12-.42-.6-1-1.02-1.74-1.27-.74-.24-1.81-.37-3.2-.37H2.89v7.52Z" fill="#363636" stroke-width="0"/>
  </g>
  <g id="uuid-93aa1826-95d2-4e03-aa9b-90d3763bfdda" data-name="Layer 2">
    <path d="M105.56,21.23c.16-.39.48-1.04,1.11-1.66.61-.6,1.23-.91,1.62-1.07.8.37.23,1.07.39,1.59-1.19.46-1.71,1.41-1.76,2.59-.07,1.44-.09,2.9,0,4.33.08,1.18.52,2.24,1.75,2.75-.16.52.41,1.22-.39,1.59-1.3-.56-2.03-1.57-2.72-2.82-.07-.12-.27-.54-.46-1.14-.15-.77-.19-2.62,0-4.94.04-.44.29-.82.44-1.23h.02Z" fill="#e1e8ed" stroke-width="0"/>
    <path d="M105.03,11.83c-.34-2.15,0-3.97,0-4.94.14-.58.4-1.3.88-2.02.45-.67.91-1.06,1-1.14.48-.41.95-.65,1.29-.8.79.37.23,1.07.39,1.59-1.23.5-1.67,1.57-1.75,2.75-.1,1.44-.07,2.89,0,4.33.05,1.18.58,2.13,1.76,2.59-.16.52.4,1.23-.39,1.59-.36-.16-.87-.42-1.37-.86-1.17-1.01-1.66-2.24-1.8-3.1h0Z" fill="#e1e8ed" stroke-width="0"/>
    <path d="M124.2,2.56c1.44.08,1.76.53,1.79,2.55.09.42-.3,1.07.2,1.2.45.12.8-.49,1.1-.87.64-.82.48-1.81.46-2.74,0-.61.08-.97.84-.96.74,0,.79.38.76.93-.02.56,0,1.11,0,1.67-.34,1.6-1.2,2.87-2.68,3.57-.94.44-.61,1.18-.7,1.85-.08.63.21.94.76,1.19,1.88.88,2.62,2.56,2.76,4.47.1,1.43.16,2.88-.12,4.32-.32,1.65-1.1,2.95-2.64,3.69-.55.26-.84.57-.76,1.19.09.67-.24,1.4.7,1.85,1.48.7,2.34,1.97,2.68,3.57,0,.56-.02,1.11,0,1.67.02.55-.03.92-.76.93-.76,0-.85-.35-.84-.96.02-.94.18-1.92-.46-2.74-.3-.38-.65-.99-1.1-.87-.5.13-.11.79-.2,1.2-.06.54.1,1.1-.15,1.62-.33.69-.88.99-1.64.93v-12.68c0-.42-.18-.99.59-.97,1.21.39,1.23,1.37,1.2,2.38,0,.2-.02.39,0,.59.02.25-.11.57.17.72.35.18.53-.15.74-.34.62-.57.86-1.3.87-2.11,0-1.47,0-2.95,0-4.42,0-.51-.13-.98-.35-1.41-.26-.49-.61-1.16-1.17-1.03s-.17.85-.26,1.3c.03,1.01,0,1.99-1.2,2.38-.76.02-.58-.55-.59-.97V2.56Z" fill="#c6d5db" stroke-width="0"/>
    <path d="M110.4,1.58h.89c.42-.02.73.08.69.58-.04.47.21.71.61.9,1.64.78,2.64,2.11,2.85,3.89.2,1.76.28,3.55-.07,5.3-.31,1.57-1.23,2.78-2.67,3.46-.78.36-.7.91-.72,1.53-.02.61.02,1.07.71,1.43,1.88.98,2.85,2.6,2.83,4.72-.01,1.47.17,2.96-.16,4.43-.35,1.59-1.27,2.71-2.69,3.46-.23.12-.62.2-.61.45.06,1.36-.9,1.05-1.67,1.06,0-2.07-.02-4.13-.02-6.2,0-.26-.05-.53.2-.72.78.15,1.25.61,1.4,1.39v2.07c0,.3.1.62.44.31.62-.56,1.36-1.06,1.34-2.07-.02-1.74,0-3.48-.01-5.23,0-.77-.39-1.38-.97-1.86-.16-.14-.43-.27-.61-.24-.29.06-.18.38-.19.59-.01.62,0,1.25,0,1.87-.14.91-.81,1.2-1.59,1.38v-13.83c.77.18,1.45.47,1.59,1.38,0,.43-.03.86,0,1.28.04.4-.23,1.04.2,1.15.53.14.91-.41,1.18-.88.21-.37.41-.74.4-1.2-.01-1.75,0-3.49-.01-5.24-.01-.9-.51-1.52-1.23-2.01-.37-.25-.54-.17-.54.27v2.07c-.14.79-.62,1.24-1.4,1.39-.25-.19-.2-.47-.2-.72,0-2.07.01-4.13.02-6.2v.04Z" fill="#c6d5db" stroke-width="0"/>
    <path d="M122.41,23.71c-1.99-.68-3.09-2.19-3.29-4.16-.19-1.81-.32-3.69.16-5.49.43-1.66,1.47-2.83,3.14-3.4.33.99.31,1.98.01,2.97-.07-.34.18-.88-.14-.99-.46-.15-.69.36-.94.71-.31.44-.51.92-.51,1.46-.01,1.58-.01,3.16,0,4.74,0,.76.39,1.38.86,1.94.15.17.36.36.6.27.22-.08.11-.34.13-.53.01-.16,0-.33,0-.49.3.99.32,1.98-.01,2.97h0Z" fill="#e1e8ed" stroke-width="0"/>
    <path d="M122.41,23.71c.33-.99.31-1.98.01-2.97,0-.06-.01-.13-.01-.19.33-.28.17-.66.2-1,.09-1.15,1.04-1.76,2.19-1.38-.76-.02-.59.55-.59.97v12.68c-1.06-.07-1.55-.55-1.6-1.55-.01-.28.08-.6-.2-.82,0-.06,0-.13.01-.19.42-.84.11-1.73.18-2.6.02-.24-.17-.33-.38-.37.71-.81.42-1.69.2-2.57h-.01Z" fill="#edf0f3" stroke-width="0"/>
    <path d="M122.42,13.63c.3-.99.32-1.98-.01-2.97.22-.88.51-1.76-.2-2.57.76-.94.41-1.96.2-2.97,0-.06-.01-.13-.01-.19.29-.22.19-.53.2-.82.05-1.01.54-1.48,1.6-1.55v12.68c0,.42-.18.99.59.97-1.15.38-2.1-.23-2.19-1.38-.03-.34.13-.72-.2-1,0-.06,0-.13.01-.19h.01Z" fill="#edf0f3" stroke-width="0"/>
    <path d="M122.42,5.12c.2,1.01.56,2.03-.2,2.97-2.61-1.17-3.36-3.49-3.18-5.98.03-.44.25-.56.63-.55.43,0,.86.04,1.28,0,.72-.08.94.25.87.91-.04.36-.01.72-.02,1.08-.35-.4-.13-.88-.19-1.32-.04-.26-.11-.44-.41-.43-.24,0-.37.15-.37.37,0,1.11-.2,2.25.45,3.26.22.34.51.87.92.76.42-.12.13-.69.2-1.05h.02Z" fill="#e1e8ed" stroke-width="0"/>
    <path d="M122.21,26.28c.21.04.4.13.38.37-.07.87.25,1.76-.18,2.6-.08-.36.22-.94-.2-1.05-.41-.11-.7.42-.92.76-.65,1-.45,2.15-.45,3.26,0,.22.13.36.37.37.3,0,.38-.17.41-.43.06-.44-.16-.92.19-1.32,0,.1.01.2,0,.29-.01,2,.19,1.61-1.65,1.7-.93.05-1.14-.27-1.15-1.16-.02-2.47.93-4.3,3.2-5.39Z" fill="#e1e8ed" stroke-width="0"/>
    <path d="M110.4,1.58c0,2.07-.02,4.13-.02,6.2,0,.26-.05.53.2.72-1.13.09-1.87-.46-1.98-1.47-.04-.31.11-.67-.21-.92.31-.49.17-1.04.2-1.56-.16-.52.41-1.22-.39-1.59.09-.09.26-.18.26-.28.05-1.42,1.09-1.09,1.94-1.09h0Z" fill="#edf0f3" stroke-width="0"/>
    <path d="M110.59,25.88c-.25.19-.2.47-.2.72,0,2.07.01,4.13.02,6.2-.26,0-.53,0-.79,0-.63.06-1.13,0-1.03-.84.03-.27-.27-.35-.38-.54.79-.37.23-1.07.39-1.59-.02-.53.11-1.07-.2-1.56.31-.25.17-.61.21-.92.11-1.01.85-1.56,1.98-1.47h0Z" fill="#edf0f3" stroke-width="0"/>
    <path d="M129.36,4.33c0-.56-.02-1.11,0-1.67.02-.55-.03-.92-.76-.93-.76,0-.85.35-.84.96.02.94.18,1.92-.46,2.74-.3.38-.65.99-1.1.87-.5-.13-.11-.79-.2-1.2.82-.49.74-1.3.79-2.09.03-.46-.26-1.12.3-1.34.7-.28,1.49-.15,2.24-.05.08,0,.21.2.2.3-.05.8.23,1.63-.17,2.41Z" fill="#e1e8ed" stroke-width="0"/>
    <path d="M126,29.27c.09-.42-.3-1.07.2-1.2.45-.12.8.49,1.1.87.64.82.48,1.81.46,2.74,0,.61.08.97.84.96.74,0,.79-.38.76-.93-.02-.56,0-1.11,0-1.67.4.78.13,1.6.17,2.41,0,.23-.17.34-.39.35-.16,0-.33,0-.49,0-2.07,0-1.87.1-1.87-1.75,0-.7-.08-1.39-.78-1.79Z" fill="#e1e8ed" stroke-width="0"/>
    <path d="M122.42,5.12c-.08.36.22.94-.2,1.05-.41.11-.7-.42-.92-.76-.65-1-.45-2.15-.45-3.26,0-.22.13-.36.37-.37.3,0,.38.17.41.43.06.44-.16.92.19,1.32.07.52.11,1.05.6,1.39,0,.06,0,.13.01.19h-.01Z" fill="#c8d6dc" stroke-width="0"/>
    <path d="M121.81,30.83c-.35.4-.13.88-.19,1.32-.04.26-.11.44-.41.43-.24,0-.37-.15-.37-.37,0-1.11-.2-2.25.45-3.26.22-.34.51-.87.92-.76.42.12.13.69.2,1.05,0,.06-.01.13-.01.19-.49.34-.52.87-.6,1.39h.01Z" fill="#c8d7dc" stroke-width="0"/>
    <path d="M110.4,10.27v13.83c-1.24-.07-1.71-.5-1.79-1.68-.02-.25.04-.53-.21-.71.33-.49.18-1.03.2-1.56-.16-.52.41-1.23-.39-1.59.57-.72.57-2.04,0-2.76.8-.37.23-1.07.39-1.59v-1.36c0-2.05.31-2.49,1.79-2.58h.01Z" fill="#edf0f3" stroke-width="0"/>
    <path d="M108.6,20.16c-.03.52.12,1.07-.2,1.56-.52.41-.57,1-.58,1.59-.01,1.08.01,2.16,0,3.24-.01.65.15,1.23.6,1.71.31.49.17,1.04.2,1.56-1.23-.5-1.67-1.57-1.75-2.75-.1-1.44-.07-2.89,0-4.33.05-1.18.58-2.13,1.76-2.59h-.03Z" fill="#c7d6dc" stroke-width="0"/>
    <path d="M108.6,12.85v1.36c-1.19-.46-1.71-1.41-1.76-2.59-.07-1.44-.09-2.9,0-4.33.08-1.18.52-2.24,1.75-2.75-.02.53.11,1.07-.2,1.56-.37.4-.59.86-.59,1.41,0,1.24-.02,2.49,0,3.73.02.63.16,1.24.78,1.59l.02.02Z" fill="#c7d6dc" stroke-width="0"/>
    <path d="M125.99,20.54c.66-.26.77-.84.78-1.43.02-1.28.02-2.56,0-3.84,0-.6-.12-1.17-.78-1.43.09-.45-.29-1.17.26-1.3.56-.13.91.54,1.17,1.03.23.43.36.9.35,1.41,0,1.47,0,2.95,0,4.42,0,.81-.25,1.55-.87,2.11-.21.19-.39.52-.74.34-.28-.15-.15-.47-.17-.72-.02-.2,0-.39,0-.59Z" fill="#e1e8ed" stroke-width="0"/>
    <path d="M111.98,11.64c.35.27.07.7.36,1.18.86-2.34.88-4.51.04-6.9-.34.46-.05.93-.4,1.18v-2.07c0-.44.17-.52.54-.27.72.49,1.22,1.11,1.23,2.01.02,1.74,0,3.49.01,5.24,0,.46-.19.83-.4,1.2-.27.46-.65,1.01-1.18.88-.43-.11-.16-.75-.2-1.15-.04-.42,0-.86,0-1.28v-.02Z" fill="#e1e8ed" stroke-width="0"/>
    <path d="M111.98,27.27c.34.27.09.69.33,1.18,1.01-2.34.78-4.52.1-6.94-.38.5-.08.98-.43,1.22,0-.62-.01-1.25,0-1.87,0-.21-.1-.53.19-.59.19-.04.45.1.61.24.58.48.97,1.09.97,1.86.02,1.74-.01,3.48.01,5.23.01,1.01-.72,1.51-1.34,2.07-.34.31-.44-.02-.44-.31v-2.09Z" fill="#e1e8ed" stroke-width="0"/>
    <path d="M122.41,13.82c-.46.47-.62,1.05-.61,1.7.02,1.11.02,2.22,0,3.33-.01.65.15,1.22.61,1.7,0,.06,0,.13.01.19v.49c-.02.18.09.44-.13.53-.24.09-.45-.09-.6-.27-.48-.56-.86-1.17-.86-1.94v-4.74c0-.54.2-1.02.51-1.46.25-.35.48-.86.94-.71.33.11.07.65.14.99,0,.06-.01.13-.01.19Z" fill="#c7d6dc" stroke-width="0"/>
    <line x1="105.56" y1="21.23" x2="105.11" y2="22.51" fill="none" stroke-width="0"/>
  </g>
  <g id="uuid-975a246b-4bd5-4647-89e3-c9abdc18e8a9" data-name="Layer 3">
    <g id="uuid-e4807de2-4fb1-4a7c-8474-512acfdb9275" data-name="lock">
      <path d="M150.13.01c1.35.6,2.81.97,3.98,1.95,2.09,1.75,3.35,3.9,3.4,6.66.03,1.97,0,3.94,0,5.91-1.18-.03-2.36-.05-3.53-.08-.06-2.1.2-4.2-.15-6.29-.4-2.37-2.23-4.18-4.52-4.48-2.43-.32-4.71.84-5.69,3.03-.35.77-.71.94-1.44.64-.37-.16-.78-.24-1.17-.35-1.37-.38-1.39-.39-.78-1.71,1.11-2.41,2.99-3.98,5.47-4.86.28-.1.62-.08.74-.43h3.69Z" fill="#aab8c2" stroke-width="0"/>
      <path d="M153.99,14.45c1.18.03,2.35.05,3.53.08,2.07.76,2.89,2.26,2.83,4.43-.07,3.19,0,6.38-.02,9.58,0,2.64-1.47,4.1-4.11,4.1h-15.54c-2.52,0-4.02-1.47-4.03-3.97,0-3.4,0-6.79,0-10.19,0-2.49,1.52-3.96,4.04-3.97,4.43-.02,8.86-.03,13.28-.05h.02Z" fill="#fead30" stroke-width="0"/>
    </g>
  </g>
</svg>